# xmcd CD database file
# Copyright (C) 1993-1998 Ti Kan
#
# Track frame offsets:
# 150
# 14475
# 29250
# 59800
# 73963
# 89763
# 105213
# 115888
# 130613
# 154250
# 166925
# 179813
#
# Disc length: 3088 seconds
# Revision: 0
# Processed by: cddbd v1.4b41PL1 Copyright (c) Steve Scherf et al.
# Submitted via: CDSpectrumPro v3.3.333
#
DISCID=aa0c0e0c
DTITLE=Bloodwood - A taste of Australia
DYEAR=1900
DGENRE=
TTITLE0=Waltzing Matilda
TTITLE1=Overlanders
TTITLE2=Medley
TTITLE3=Pub with no beer
TTITLE4=Tie me kangaroo down
TTITLE5=Road to Gundagai
TTITLE6=I still call Australia home
TTITLE7=Advance Australia Fair
TTITLE8=Wild colonial boy
TTITLE9=Lachlan Tigers
TTITLE10=Home among the gum trees
TTITLE11=Click,Botany Bay,Waltzing Matilda
EXTD=
EXTT0=
EXTT1=
EXTT2=
EXTT3=
EXTT4=
EXTT5=
EXTT6=
EXTT7=
EXTT8=
EXTT9=
EXTT10=
EXTT11=
PLAYORDER=
